<svg width="149" height="74" viewBox="0 0 149 74" fill="none" xmlns="http://www.w3.org/2000/svg">
<path d="M27.1122 40.3743C26.0963 39.3793 24.9224 38.4774 23.6066 37.6847C21.7841 36.5874 19.4525 36.0295 16.6769 36.0295C14.4987 36.0295 12.3833 36.4433 10.3888 37.2592C8.38727 38.0775 6.59963 39.3119 5.07467 40.9275C3.55669 42.5362 2.31766 44.5284 1.39478 46.8507C0.469576 49.173 0 51.8765 0 54.8823V55.0148C0 58.0229 0.469576 60.7241 1.39245 63.0464C2.31533 65.371 3.56599 67.3656 5.10722 68.9719C6.65077 70.5852 8.45004 71.8172 10.4515 72.6378C12.4461 73.4538 14.5406 73.8676 16.6746 73.8676C19.4084 73.8676 21.719 73.298 23.5439 72.1775C24.8689 71.3616 26.0638 70.369 27.1099 69.2136V73.2074H38.2983V23.8926H27.1099V40.3743H27.1122ZM26.5891 51.0722C27.0238 52.2183 27.2447 53.4991 27.2447 54.8846V55.0171C27.2447 56.4026 27.0238 57.6835 26.5891 58.8295C26.1544 59.9732 25.571 60.9635 24.8526 61.7702C24.1413 62.5675 23.2975 63.1905 22.3444 63.6183C21.3913 64.046 20.3522 64.2645 19.2526 64.2645C18.1531 64.2645 17.1116 64.0483 16.1585 63.6183C15.2008 63.1882 14.3453 62.5629 13.6107 61.7632C12.8738 60.9589 12.2787 59.9709 11.8463 58.8295C11.4116 57.6835 11.1908 56.4026 11.1908 55.0171V54.8846C11.1908 53.4596 11.4116 52.1671 11.844 51.042C12.2764 49.9215 12.8715 48.9429 13.6107 48.1362C14.3453 47.3342 15.2008 46.7112 16.1585 46.2811C17.1116 45.8511 18.1531 45.6349 19.2503 45.6349C20.3475 45.6349 21.3889 45.8534 22.342 46.2811C23.2975 46.7112 24.1413 47.3319 24.8503 48.1292C25.571 48.9382 26.1544 49.9262 26.5891 51.0699V51.0722Z" fill="white"/>
<path d="M64.4355 36.0318C63.1081 36.0318 61.897 36.1969 60.8346 36.5223C59.7746 36.8478 58.7959 37.2941 57.9218 37.8497C57.0524 38.4029 56.2528 39.0445 55.5461 39.7559C55.2415 40.0627 54.9463 40.3789 54.6604 40.702V36.6897H43.4719V73.2097H54.6604V52.9528C54.6604 50.7467 55.1741 49.0753 56.1877 47.9851C57.2035 46.8925 58.5658 46.3602 60.3464 46.3602C62.1271 46.3602 63.4452 46.8879 64.3959 47.9711C65.3514 49.0614 65.8349 50.7374 65.8349 52.9505V73.2073H77.0233V49.7355C77.0233 45.5186 75.9191 42.1479 73.741 39.7164C71.5465 37.2685 68.4152 36.0272 64.4355 36.0272V36.0318Z" fill="white"/>
<path d="M107.796 60.2103L107.382 60.5938C106.192 61.7003 104.976 62.593 103.772 63.2462C102.612 63.8785 101.228 64.197 99.6616 64.197C98.3877 64.197 97.2254 63.9599 96.2095 63.4903C95.189 63.0207 94.2987 62.3698 93.5618 61.5516C92.8249 60.7333 92.253 59.757 91.8648 58.6458C91.4719 57.5276 91.272 56.3049 91.272 55.0124V54.8799C91.272 53.6315 91.4719 52.4437 91.8648 51.3488C92.2553 50.2585 92.8179 49.2891 93.5362 48.4685C94.2499 47.6526 95.0984 46.9994 96.0584 46.5298C97.0069 46.0649 98.0878 45.8301 99.2664 45.8301C100.954 45.8301 102.377 46.1579 103.493 46.8064C104.65 47.4806 105.794 48.4011 106.896 49.5448L107.321 49.9865L114.237 42.55L113.879 42.1548C112.163 40.2603 110.15 38.7493 107.893 37.666C105.624 36.578 102.744 36.0248 99.3292 36.0248C96.5373 36.0248 93.943 36.5292 91.6138 37.5219C89.2868 38.5168 87.2597 39.8907 85.5883 41.6086C83.9169 43.3265 82.5872 45.3628 81.6411 47.6642C80.6926 49.9679 80.2114 52.439 80.2114 55.0101V55.1426C80.2114 57.7159 80.6926 60.1754 81.6411 62.4582C82.5895 64.7386 83.9169 66.7541 85.5906 68.4488C87.2644 70.1457 89.2914 71.508 91.6138 72.5006C93.9407 73.4955 96.4932 74 99.1967 74C102.795 74 105.775 73.3654 108.054 72.1147C110.299 70.8803 112.326 69.274 114.074 67.3446L114.444 66.9377L107.791 60.2079L107.796 60.2103Z" fill="white"/>
<path d="M123.789 0H99.3154V24.4737H123.789V0Z" fill="#00ABFF"/>
<path d="M123.789 0H136.724C143.093 0 148.265 5.17231 148.265 11.5418V24.4761H123.792V0H123.789Z" fill="#0C70F2"/>
<path d="M148.263 24.4738H123.789V48.9475H148.263V24.4738Z" fill="#00D7EE"/>
</svg>
